<?xml version="1.0" encoding="UTF-8"?>
<svg xmlns="http://www.w3.org/2000/svg" xmlns:xlink="http://www.w3.org/1999/xlink" width="253.9pt" height="417.9pt" viewBox="0 0 253.9 417.9" version="1.1">
<defs>
<clipPath id="clip1">
  <path d="M 0 0 L 253.898438 0 L 253.898438 401 L 0 401 Z M 0 0 "/>
</clipPath>
<clipPath id="clip2">
  <path d="M 34 320 L 239 320 L 239 417.898438 L 34 417.898438 Z M 34 320 "/>
</clipPath>
</defs>
<g id="surface1">
<g clip-path="url(#clip1)" clip-rule="nonzero">
<path style=" stroke:none;fill-rule:evenodd;fill:rgb(10.594177%,9.812927%,9.423828%);fill-opacity:1;" d="M 96.484375 267.398438 C 90.820313 269.398438 85.988281 271.730469 81.988281 274.394531 C 77.992188 277.0625 74.742188 279.976563 72.242188 283.144531 C 69.742188 286.308594 67.660156 289.808594 65.996094 293.640625 C 64.328125 297.472656 63.664063 308.386719 63.996094 326.378906 C 63.996094 337.710938 69.492188 343.375 80.492188 343.375 C 91.152344 343.375 96.484375 337.710938 96.484375 326.378906 Z M 162.464844 373.367188 C 162.464844 374.035156 162.464844 375.199219 162.464844 376.863281 C 162.464844 381.53125 160.800781 385.777344 157.46875 389.613281 C 154.136719 393.441406 149.800781 395.359375 144.472656 395.359375 L 123.476563 395.359375 C 119.480469 395.359375 117.148438 393.527344 116.480469 389.863281 L 114.980469 379.363281 L 111.480469 379.363281 C 107.148438 386.027344 101.402344 391.277344 94.234375 395.109375 C 87.074219 398.941406 78.65625 400.859375 68.996094 400.859375 C 48.332031 400.859375 31.667969 394.441406 19.011719 381.613281 C 6.347656 368.785156 0.015625 351.039063 0.015625 328.378906 C 0.015625 311.71875 1.429688 298.636719 4.265625 289.140625 C 7.097656 279.644531 10.761719 271.8125 15.261719 265.648438 C 19.757813 259.484375 24.917969 253.738281 30.753906 248.402344 C 36.585938 243.074219 42.335938 238.40625 47.996094 234.410156 C 61.996094 225.746094 78.160156 218.746094 96.484375 213.414063 L 96.484375 169.929688 C 96.484375 164.929688 95.570313 161.265625 93.738281 158.933594 C 91.902344 156.601563 88.820313 155.433594 84.488281 155.433594 C 79.824219 155.433594 76.660156 156.601563 74.992188 158.933594 C 73.328125 161.265625 72.492188 164.929688 72.492188 169.929688 L 72.492188 176.925781 C 72.492188 181.925781 70.578125 186.171875 66.746094 189.671875 C 62.914063 193.171875 58.664063 194.921875 53.996094 194.921875 L 25.007813 194.921875 C 20.34375 194.921875 16.171875 193.171875 12.511719 189.671875 C 8.847656 186.171875 7.011719 181.925781 7.011719 176.925781 L 7.011719 171.425781 C 7.011719 160.429688 9.179688 150.433594 13.511719 141.4375 C 17.84375 132.4375 23.59375 124.691406 30.753906 118.195313 C 37.917969 111.695313 46.246094 106.78125 55.746094 103.449219 C 65.246094 100.117188 75.492188 98.449219 86.488281 98.449219 C 97.152344 98.449219 106.984375 100.117188 115.980469 103.449219 C 124.976563 106.78125 132.558594 111.695313 138.722656 118.195313 C 144.886719 124.691406 149.800781 132.4375 153.46875 141.4375 C 157.132813 150.433594 158.964844 160.429688 158.964844 171.425781 L 158.964844 335.378906 C 158.964844 341.710938 159.300781 347.957031 159.964844 354.121094 C 160.632813 360.285156 161.464844 366.699219 162.464844 373.367188 Z M 192.007813 169.929688 C 192.007813 164.929688 190.339844 161.265625 187.007813 158.933594 C 183.675781 156.601563 179.511719 155.433594 174.511719 155.433594 C 170.179688 155.433594 166.515625 156.601563 163.515625 158.933594 C 160.515625 161.265625 159.015625 164.929688 159.015625 169.929688 L 159.015625 328.878906 C 159.015625 333.542969 160.515625 337.128906 163.515625 339.628906 C 166.515625 342.125 170.179688 343.375 174.511719 343.375 C 179.511719 343.375 183.675781 342.125 187.007813 339.628906 C 190.339844 337.128906 192.007813 333.546875 192.007813 328.878906 Z M 253.988281 350.875 C 253.988281 359.203125 252.652344 366.371094 249.988281 372.367188 C 247.324219 378.363281 243.65625 383.363281 238.992188 387.363281 C 234.328125 391.359375 228.914063 394.609375 222.746094 397.109375 C 216.578125 399.609375 210.164063 400.859375 203.503906 400.859375 C 195.171875 400.859375 187.089844 399.105469 179.261719 395.609375 C 171.429688 392.109375 165.015625 387.859375 160.015625 382.863281 L 156.515625 382.863281 L 155.515625 389.863281 C 154.96875 393.722656 151.683594 395.359375 148.019531 395.359375 L 114.53125 395.359375 C 109.867188 395.359375 105.699219 393.527344 102.035156 389.863281 C 98.367188 386.195313 96.535156 382.03125 96.535156 377.367188 L 96.535156 18.476563 C 96.535156 13.476563 98.367188 9.144531 102.035156 5.476563 C 105.699219 1.8125 109.863281 -0.0195313 114.53125 -0.0195313 L 140.523438 -0.0195313 C 145.519531 -0.0195313 149.851563 1.8125 153.519531 5.476563 C 157.183594 9.144531 159.015625 13.476563 159.015625 18.476563 L 159.015625 116.445313 L 162.515625 116.445313 C 167.515625 110.78125 173.597656 106.363281 180.761719 103.199219 C 187.925781 100.035156 195.503906 98.449219 203.503906 98.449219 C 210.164063 98.449219 216.578125 99.535156 222.746094 101.699219 C 228.914063 103.867188 234.328125 107.199219 238.992188 111.695313 C 243.65625 116.195313 247.324219 121.527344 249.988281 127.691406 C 252.652344 133.855469 253.988281 140.4375 253.988281 147.433594 Z M 253.988281 350.875 "/>
</g>
<g clip-path="url(#clip2)" clip-rule="nonzero">
<path style=" stroke:none;fill-rule:evenodd;fill:rgb(10.594177%,9.812927%,9.423828%);fill-opacity:1;" d="M 126.84375 343.617188 C 127.496094 342.324219 128.199219 341.054688 128.941406 339.808594 C 133.820313 331.632813 142.539063 321.761719 152.527344 320.535156 L 152.621094 320.523438 L 156.535156 320.523438 L 156.632813 320.535156 C 158.566406 320.777344 160.414063 321.359375 162.15625 322.226563 C 165.539063 323.90625 167.84375 326.722656 168.691406 330.421875 C 169.132813 332.339844 169.195313 334.167969 168.800781 336.097656 C 168.53125 337.398438 168.054688 338.597656 167.753906 339.875 C 167.621094 340.445313 167.539063 341.007813 167.558594 341.59375 C 167.578125 342.273438 168.660156 344.011719 169.007813 344.632813 C 170.058594 346.511719 170.902344 348.359375 171.164063 350.527344 C 171.621094 354.234375 171.03125 358.925781 170.03125 362.519531 C 168.46875 368.15625 164.96875 375.625 161.335938 380.203125 C 159.355469 382.695313 156.96875 384.8125 154.316406 386.570313 C 153.734375 386.953125 153.152344 387.332031 152.558594 387.699219 C 157.632813 386.476563 161.109375 383.808594 166.535156 380.03125 C 169.644531 377.867188 172.753906 375.574219 176.1875 373.941406 C 178.105469 373.027344 180.226563 372.441406 182.277344 373.308594 C 184.40625 374.210938 185.949219 376.601563 187.34375 378.367188 C 190.109375 381.863281 191.777344 382.871094 196.273438 383.089844 C 201.214844 383.332031 206.179688 382.824219 211.128906 382.804688 C 212.8125 382.800781 214.5625 382.921875 216.242188 383.050781 C 218.738281 383.242188 221.234375 383.511719 223.710938 383.878906 C 227.140625 384.386719 236.058594 385.714844 237.410156 389.515625 L 238.078125 391.410156 L 236.078125 391.589844 C 232.402344 391.921875 227.53125 390.949219 223.878906 390.285156 C 220.742188 389.714844 217.441406 389.03125 214.265625 388.785156 C 210.894531 388.523438 207.363281 388.730469 203.980469 388.84375 C 199.769531 388.984375 194.65625 389.179688 190.578125 388.074219 C 187.515625 387.242188 185.414063 385.226563 183.40625 382.898438 C 182.394531 381.726563 180.652344 379.414063 179.148438 378.941406 C 178.394531 378.703125 177.65625 378.882813 176.953125 379.203125 C 175.808594 379.726563 174.636719 380.507813 173.59375 381.214844 C 172.148438 382.195313 170.734375 383.234375 169.324219 384.273438 C 167.128906 385.890625 164.882813 387.621094 162.566406 389.058594 C 154.265625 394.207031 151.992188 394.480469 142.359375 393.550781 C 134.320313 392.773438 127.714844 395.050781 119.929688 391.230469 C 118.421875 390.492188 117.015625 389.96875 115.371094 389.628906 C 113.757813 389.292969 112.132813 389.078125 110.511719 388.722656 C 108.335938 388.246094 104.484375 386.46875 104.828125 383.707031 C 105.085938 381.695313 107.34375 381.023438 109.039063 380.785156 C 111.054688 380.5 113.230469 381.027344 115.175781 381.535156 C 116.609375 381.910156 118.273438 382.421875 119.753906 382.503906 C 122.285156 382.648438 126.871094 381.957031 129.066406 380.664063 C 129.695313 380.292969 130.289063 379.847656 130.683594 379.246094 L 128.652344 378.875 C 124.414063 378.105469 123.40625 373.78125 122.144531 370.355469 C 121.199219 367.789063 120.828125 365.449219 120.910156 363.019531 C 119.628906 366.1875 118.328125 368.964844 117.183594 370.992188 C 113.949219 376.710938 109.46875 380.375 103.203125 382.371094 C 102.257813 382.671875 101.316406 382.929688 100.355469 383.171875 C 100.191406 383.214844 99.894531 383.28125 99.640625 383.351563 C 99.664063 383.648438 99.726563 383.992188 99.746094 384.1875 C 99.878906 385.265625 99.980469 386.328125 100.035156 387.414063 C 100.222656 391.191406 101.402344 396.4375 102.929688 399.898438 L 103.308594 400.761719 L 102.722656 401.496094 C 101.996094 402.40625 100.996094 403.039063 99.792969 402.859375 C 98.765625 402.703125 97.960938 401.980469 97.339844 401.101563 C 97.34375 401.128906 97.347656 401.160156 97.347656 401.1875 C 97.417969 401.910156 97.488281 402.636719 97.542969 403.363281 C 97.769531 406.363281 97.96875 410.9375 95.449219 413.089844 C 93.035156 415.152344 89.527344 414.007813 87.007813 412.804688 C 82.296875 410.554688 77.816406 407.390625 73.890625 403.96875 C 72.046875 402.363281 70.246094 400.597656 68.453125 398.933594 C 67.308594 397.871094 66.160156 396.808594 64.996094 395.765625 C 64.785156 395.578125 64.527344 395.335938 64.253906 395.089844 L 61.96875 399.0625 L 64.933594 399 L 65.285156 398.925781 L 67.53125 399.035156 L 67.847656 400.089844 C 67.964844 400.484375 67.976563 400.898438 67.871094 401.296875 C 67.269531 403.613281 63.480469 403.761719 61.542969 404.058594 C 61.152344 404.117188 59.4375 404.25 59.160156 404.375 C 58.914063 404.488281 58.261719 405.589844 58.121094 405.816406 C 56.277344 408.914063 54.492188 411.59375 52.230469 414.414063 C 51.460938 415.371094 50.472656 416.347656 49.359375 416.894531 C 48.320313 417.402344 47.042969 417.550781 46.117188 416.722656 C 45.082031 415.800781 45.21875 414.359375 45.722656 413.203125 C 46.320313 411.835938 47.464844 410.554688 48.542969 409.546875 C 49.464844 408.691406 51.910156 405.207031 53.109375 403.054688 C 52.882813 402.992188 52.65625 402.9375 52.429688 402.878906 C 50.613281 402.4375 49.035156 402.089844 47.398438 401.113281 C 45.355469 399.898438 43.679688 398.601563 41.824219 397.132813 C 40.957031 396.445313 40.019531 395.367188 39.289063 394.527344 C 38.546875 393.6875 37.664063 392.683594 37.070313 391.742188 C 36.160156 390.308594 35.664063 388.726563 35.355469 387.070313 C 35.253906 386.519531 35.082031 384.929688 34.886719 384.492188 L 34.707031 384.152344 L 34.707031 383.261719 L 34.859375 382.945313 C 35.140625 382.355469 35.265625 381.34375 35.417969 380.6875 C 36.148438 377.65625 37.972656 376.269531 41.167969 376.226563 C 44.535156 376.179688 47.488281 377.089844 50.46875 378.585938 C 52.847656 379.78125 55.070313 381.214844 57.394531 382.496094 C 59.152344 383.464844 60.773438 384.851563 62.464844 385.917969 C 64.648438 381.402344 67.320313 377.109375 69.601563 372.648438 C 72.140625 367.691406 74.515625 362.648438 77.023438 357.675781 C 79.515625 352.722656 82.15625 347.824219 84.390625 342.742188 C 85.460938 340.3125 86.632813 337.875 87.878906 335.527344 C 88.746094 333.894531 89.695313 332.199219 90.777344 330.699219 C 91.601563 329.550781 92.886719 327.933594 94.464844 328.046875 L 94.960938 328.082031 L 95.34375 328.398438 C 96.34375 329.21875 96.386719 331.265625 96.429688 332.460938 C 96.496094 334.324219 96.449219 336.222656 96.378906 338.085938 C 96.28125 340.792969 96.066406 343.488281 95.960938 346.1875 C 95.734375 351.886719 95.515625 357.597656 95.515625 363.304688 L 95.515625 365.578125 C 97.054688 356.894531 99.527344 348.582031 102.996094 340.042969 C 105.234375 334.550781 107.691406 328.277344 112.773438 324.796875 C 115.410156 322.992188 118.714844 321.832031 121.789063 323.253906 C 125.484375 324.964844 127.109375 329.503906 127.609375 333.261719 C 127.972656 335.964844 127.621094 339.605469 126.84375 343.617188 Z M 99.636719 378.144531 C 100.441406 377.960938 101.972656 377.375 102.394531 377.222656 C 112.226563 373.695313 115.144531 363.929688 118.355469 355.015625 C 120.144531 350.042969 121.824219 344.8125 122.496094 339.550781 C 122.828125 336.957031 122.898438 327.199219 118.636719 327.664063 C 111.546875 328.441406 106.285156 345.359375 104.425781 351.109375 C 102.734375 356.339844 101.578125 361.691406 100.695313 367.109375 C 100.214844 370.050781 99.945313 372.976563 99.707031 375.941406 C 99.679688 376.3125 99.585938 377.472656 99.636719 378.144531 Z M 91.238281 340.621094 C 89.144531 344.664063 87.355469 348.945313 85.332031 352.953125 C 82.421875 358.714844 79.492188 364.46875 76.789063 370.332031 C 74.089844 376.210938 71.121094 381.992188 67.859375 387.582031 C 67.496094 388.195313 67.046875 389.097656 67.34375 389.820313 C 67.5625 390.359375 68.15625 390.898438 68.582031 391.269531 C 69.402344 391.984375 70.246094 392.628906 71.015625 393.402344 C 73.15625 395.558594 75.226563 397.707031 77.558594 399.660156 C 78.398438 400.367188 79.339844 401.042969 80.234375 401.679688 C 81.667969 402.710938 83.148438 403.707031 84.648438 404.644531 C 85.695313 405.296875 90.046875 407.902344 91.585938 407.957031 C 92.058594 405.964844 91.570313 398.460938 91.457031 396.765625 C 91.304688 394.375 91.117188 391.988281 90.933594 389.601563 C 90.8125 388.03125 90.65625 386.398438 90.621094 384.828125 C 90.53125 380.71875 90.101563 376.667969 90.164063 372.546875 C 90.234375 368.226563 90.078125 363.910156 90.238281 359.59375 C 90.378906 355.699219 90.695313 351.800781 90.917969 347.910156 C 91.054688 345.570313 91.207031 343.085938 91.238281 340.621094 Z M 55.8125 398.378906 C 55.984375 398.132813 56.1875 397.765625 56.289063 397.59375 C 57.210938 396.046875 58.199219 394.566406 59.160156 393.042969 C 59.320313 392.785156 59.941406 391.808594 60.007813 391.449219 C 59.605469 390.863281 55.882813 388.550781 55.308594 388.167969 C 52.914063 386.574219 44.769531 381.152344 41.960938 381.9375 C 40.441406 382.363281 40.769531 386.058594 41.210938 387.148438 C 42.136719 389.429688 43.238281 391.183594 45.140625 392.773438 C 46.976563 394.308594 48.859375 395.871094 51.078125 396.828125 C 52.316406 397.363281 53.519531 397.703125 54.808594 398.085938 C 55.03125 398.148438 55.484375 398.304688 55.8125 398.378906 Z M 131.046875 378.386719 C 131.363281 377.003906 130.746094 374.742188 130.476563 373.378906 C 129.617188 369.074219 129.359375 366.390625 130.4375 362.0625 C 132.277344 354.660156 134.210938 350.890625 139.589844 345.445313 C 145.359375 339.597656 150.15625 337.734375 158.355469 338.46875 C 159.621094 338.585938 161.921875 338.765625 163.007813 337.96875 C 163.804688 337.386719 163.96875 336.230469 163.996094 335.320313 C 164.09375 332.628906 163.386719 329.390625 161.273438 327.550781 C 156.941406 323.777344 148.84375 326.113281 144.703125 329.089844 C 140.109375 332.386719 136.609375 336.910156 133.765625 341.746094 C 130.941406 346.554688 127.882813 353.160156 126.492188 358.554688 C 124.679688 365.605469 127.785156 370.46875 130.371094 376.75 Z M 126.273438 387.355469 C 128.199219 387.777344 130.183594 388.03125 131.320313 388.03125 L 131.347656 388.03125 L 133.242188 388.097656 L 135.953125 387.910156 L 133.773438 384.746094 C 133.703125 384.773438 133.640625 384.800781 133.578125 384.824219 C 132.90625 385.082031 132.234375 385.359375 131.5625 385.632813 C 130.550781 386.046875 129.496094 386.5 128.453125 386.835938 C 127.789063 387.050781 127.03125 387.210938 126.273438 387.355469 Z M 165.449219 347.523438 C 162.453125 355.304688 158.109375 363.367188 153.246094 369.953125 C 150.535156 373.628906 147.214844 376.707031 143.570313 379.441406 C 142.785156 380.027344 139.71875 381.59375 139.011719 382.347656 C 139.363281 383.378906 141.234375 385.960938 141.902344 386.386719 C 142.804688 386.832031 146.472656 384.941406 147.289063 384.484375 C 149.027344 383.519531 150.929688 382.3125 152.484375 381.070313 C 155.996094 378.265625 158.464844 375.492188 160.738281 371.601563 C 163.046875 367.652344 164.851563 363.296875 165.878906 358.832031 C 166.328125 356.855469 166.507813 354.480469 166.441406 352.460938 C 166.402344 351.261719 166.21875 349.003906 165.449219 347.523438 Z M 136.617188 377.433594 C 137.140625 377.179688 138.003906 376.621094 138.285156 376.449219 C 144.929688 372.433594 150.179688 366.367188 154.050781 359.699219 C 156.113281 356.144531 157.976563 352.386719 159.484375 348.5625 C 159.746094 347.898438 161.335938 344.316406 161.382813 343.480469 C 160.578125 343.050781 157.164063 343.054688 156.433594 343.058594 C 148.621094 343.078125 141.429688 349.382813 138.089844 356.078125 C 136.019531 360.230469 135.039063 364.46875 135.109375 369.109375 C 135.140625 371.40625 135.6875 373.792969 136.203125 376.027344 C 136.261719 376.289063 136.4375 377 136.617188 377.433594 Z M 136.617188 377.433594 "/>
</g>
<path style=" stroke:none;fill-rule:evenodd;fill:rgb(100%,100%,100%);fill-opacity:1;" d="M 41.539063 380.433594 C 45.097656 379.441406 53.160156 384.863281 56.171875 386.871094 C 63.613281 391.828125 62.640625 389.980469 57.628906 398.390625 C 56.503906 400.28125 56.496094 400.207031 54.367188 399.578125 C 52.898438 399.144531 51.886719 398.875 50.460938 398.257813 C 48.066406 397.226563 46.101563 395.609375 44.140625 393.96875 C 42.035156 392.214844 40.789063 390.269531 39.765625 387.734375 C 38.960938 385.75 38.855469 381.1875 41.539063 380.433594 Z M 92.613281 335.074219 C 93.210938 341.566406 92.046875 352.660156 91.789063 359.648438 C 91.636719 363.972656 91.789063 368.257813 91.726563 372.570313 C 91.652344 377.007813 92.085938 380.5 92.179688 384.792969 C 92.257813 388.496094 94.285156 407.253906 92.789063 409.105469 C 90.863281 411.484375 78.617188 402.585938 76.554688 400.855469 C 74.035156 398.742188 72.195313 396.800781 69.910156 394.503906 C 67.417969 391.996094 64.128906 390.878906 66.511719 386.796875 C 69.738281 381.277344 72.707031 375.484375 75.378906 369.679688 C 78.046875 363.863281 81.054688 357.972656 83.941406 352.25 C 86.6875 346.808594 89.398438 340.097656 92.613281 335.074219 Z M 118.46875 326.113281 C 124.367188 325.46875 124.507813 336.109375 124.039063 339.75 C 123.359375 345.085938 121.640625 350.492188 119.820313 355.546875 C 116.414063 364.996094 113.335938 374.953125 102.921875 378.691406 C 98.527344 380.265625 97.765625 380.664063 98.152344 375.816406 C 98.40625 372.664063 98.644531 370 99.160156 366.859375 C 100.0625 361.332031 101.21875 355.960938 102.945313 350.628906 C 105.0625 344.082031 110.335938 327.003906 118.46875 326.113281 Z M 36.265625 383.617188 L 36.265625 383.765625 C 36.820313 384.804688 36.617188 388.125 38.386719 390.90625 C 39.085938 392 41.8125 395.132813 42.789063 395.910156 C 44.753906 397.46875 45.996094 398.464844 48.195313 399.773438 C 50.570313 401.1875 52.9375 401.140625 55.246094 402.136719 C 54.742188 403.84375 50.992188 409.402344 49.609375 410.6875 C 44.546875 415.40625 47.472656 417.855469 51.015625 413.4375 C 53.46875 410.382813 54.808594 408.332031 56.785156 405.015625 C 58.378906 402.347656 58.460938 402.957031 61.308594 402.515625 C 62.328125 402.359375 66.804688 402.042969 66.355469 400.539063 L 65.410156 400.492188 L 65.113281 400.554688 L 59.433594 400.679688 L 59.304688 400.570313 L 63.796875 392.757813 C 64.511719 392.988281 73.40625 401.476563 74.914063 402.792969 C 78.707031 406.09375 83.132813 409.226563 87.679688 411.398438 C 96.949219 415.824219 96.441406 407.769531 95.792969 401.339844 C 95.171875 395.105469 94.554688 387.457031 94.554688 381.226563 C 96.003906 381.9375 95.667969 385.117188 95.757813 386.746094 C 95.851563 388.558594 96.34375 390.90625 96.585938 392.789063 C 96.941406 395.566406 96.527344 395.640625 97.671875 398.421875 C 98.164063 399.609375 99.683594 402.8125 101.496094 400.527344 C 99.914063 396.921875 98.664063 391.324219 98.476563 387.492188 C 98.144531 380.808594 96.636719 382.828125 102.730469 380.886719 C 108.628906 379.007813 112.785156 375.597656 115.828125 370.222656 C 120.3125 362.304688 127.238281 342.265625 126.066406 333.46875 C 125.128906 326.441406 120.8125 321.1875 113.65625 326.082031 C 108.910156 329.332031 106.535156 335.496094 104.445313 340.628906 C 99.222656 353.46875 96.378906 365.277344 95.453125 379.136719 C 93.539063 377.871094 94.613281 375.726563 94.324219 373.394531 C 94.046875 371.226563 93.957031 368.488281 93.957031 366.289063 L 93.957031 363.304688 C 93.957031 357.753906 94.179688 351.691406 94.402344 346.125 C 94.496094 343.808594 95.507813 330.550781 94.355469 329.601563 C 92.128906 329.441406 86.832031 341.066406 85.820313 343.371094 C 83.617188 348.382813 80.886719 353.46875 78.414063 358.375 C 75.90625 363.351563 73.539063 368.371094 70.992188 373.359375 C 68.558594 378.113281 65.3125 383.34375 63.164063 388.097656 C 61.046875 387.074219 58.921875 385.121094 56.644531 383.863281 C 54.316406 382.578125 52.222656 381.210938 49.769531 379.980469 C 47.007813 378.589844 44.308594 377.742188 41.191406 377.785156 C 36.367188 377.851563 37.234375 381.585938 36.265625 383.617188 Z M 36.265625 383.617188 "/>
<path style=" stroke:none;fill-rule:evenodd;fill:rgb(100%,100%,100%);fill-opacity:1;" d="M 120.640625 386.871094 C 121.121094 386.617188 126.5625 385.808594 127.976563 385.351563 C 129.535156 384.847656 133.429688 383.097656 134.398438 382.90625 L 138.636719 389.058594 L 138.578125 389.289063 L 133.269531 389.660156 L 131.320313 389.589844 C 128.65625 389.589844 122.730469 388.492188 120.640625 386.871094 Z M 152.71875 322.082031 L 156.4375 322.082031 C 158.097656 322.289063 159.777344 322.785156 161.464844 323.621094 C 164.429688 325.09375 166.429688 327.527344 167.171875 330.769531 C 168.382813 336.046875 165.882813 338.222656 166.003906 341.648438 C 166.074219 343.710938 169.109375 346.542969 169.617188 350.71875 C 170.039063 354.175781 169.464844 358.738281 168.53125 362.101563 C 167.058594 367.402344 163.539063 374.917969 160.113281 379.230469 C 158.230469 381.601563 155.972656 383.601563 153.453125 385.269531 C 152.164063 386.125 150.820313 386.964844 149.464844 387.707031 C 148.785156 388.078125 148.089844 388.417969 147.410156 388.789063 C 147.242188 388.878906 145.433594 389.953125 145.460938 389.980469 L 145.515625 390.011719 C 155.566406 389.988281 159.527344 386.808594 167.425781 381.3125 C 170.421875 379.226563 173.5625 376.917969 176.855469 375.347656 C 181.855469 372.96875 183.183594 375.617188 186.121094 379.332031 C 189.140625 383.148438 191.195313 384.402344 196.199219 384.648438 C 201.113281 384.886719 206.199219 384.382813 211.132813 384.363281 C 215.390625 384.351563 234.414063 385.753906 235.941406 390.039063 C 230.640625 390.515625 220.601563 387.714844 214.386719 387.230469 C 207.300781 386.683594 197.261719 388.269531 190.988281 386.566406 C 183.910156 384.648438 182.496094 374.957031 176.308594 377.785156 C 172.710938 379.425781 165.835938 385.191406 161.746094 387.730469 C 153.710938 392.71875 151.878906 392.902344 142.507813 391.996094 C 134.660156 391.238281 127.992188 393.453125 120.617188 389.832031 C 116.660156 387.886719 114.914063 388.089844 110.847656 387.199219 C 107.035156 386.363281 103.828125 383.09375 109.257813 382.328125 C 112.402344 381.882813 116.507813 383.882813 119.664063 384.058594 C 122.496094 384.21875 127.386719 383.464844 129.859375 382.007813 C 133.730469 379.722656 132.765625 376.871094 132.007813 373.074219 C 131.175781 368.914063 130.914063 366.601563 131.949219 362.4375 C 133.738281 355.234375 135.519531 351.785156 140.699219 346.539063 C 146.179688 340.988281 150.496094 339.332031 158.21875 340.023438 C 162.148438 340.375 165.394531 340.085938 165.558594 335.371094 C 165.664063 332.183594 164.785156 328.535156 162.296875 326.375 C 157.390625 322.097656 148.601563 324.371094 143.789063 327.824219 C 139.019531 331.253906 135.382813 335.921875 132.421875 340.957031 C 129.632813 345.703125 126.347656 352.863281 124.984375 358.167969 C 123.039063 365.722656 126.203125 370.730469 128.929688 377.34375 C 125.585938 376.734375 124.734375 372.871094 123.609375 369.816406 C 122.195313 365.980469 122.175781 362.753906 123.050781 358.777344 C 124.460938 352.375 126.925781 346.234375 130.28125 340.609375 C 134.828125 332.980469 143.226563 323.246094 152.71875 322.082031 Z M 164.800781 344.785156 C 168.914063 346.523438 168.195313 355.707031 167.398438 359.179688 C 166.339844 363.789063 164.46875 368.308594 162.078125 372.390625 C 159.675781 376.511719 157.175781 379.320313 153.453125 382.289063 C 151.34375 383.976563 143.609375 389.171875 141.121094 387.738281 C 140.039063 387.113281 137.316406 383.363281 137.40625 382.140625 C 137.507813 380.78125 141.285156 379.207031 142.632813 378.191406 C 146.164063 375.546875 149.363281 372.585938 151.992188 369.027344 C 157.121094 362.082031 161.921875 352.910156 164.800781 344.785156 Z M 156.429688 341.5 C 165.078125 341.472656 163.441406 342.792969 160.933594 349.136719 C 159.421875 352.960938 157.460938 356.925781 155.398438 360.480469 C 151.394531 367.378906 145.960938 373.632813 139.089844 377.785156 C 136.464844 379.371094 135.566406 380.183594 134.683594 376.378906 C 134.144531 374.042969 133.585938 371.523438 133.550781 369.132813 C 133.476563 364.222656 134.507813 359.765625 136.695313 355.382813 C 140.320313 348.121094 148.035156 341.523438 156.429688 341.5 Z M 156.429688 341.5 "/>
<path style=" stroke:none;fill-rule:evenodd;fill:rgb(100%,100%,100%);fill-opacity:1;" d="M 75.496094 392.703125 L 78.371094 392.703125 L 78.371094 374.378906 L 75.496094 374.378906 Z M 80.46875 392.703125 L 83.347656 392.703125 L 83.347656 374.378906 L 80.46875 374.378906 Z M 85.441406 392.703125 L 88.324219 392.703125 L 88.324219 374.378906 L 85.441406 374.378906 Z M 85.441406 392.703125 "/>
</g>
</svg>
